<svg width="44" height="44" viewBox="0 0 44 44" fill="none" xmlns="http://www.w3.org/2000/svg">
<path d="M16.5 27.5001L11 40.3334M27.5 27.5001L33 40.3334M22 27.5001V40.3334M28.5193 11.0001C28.7759 10.7685 28.981 10.4857 29.1214 10.1699C29.2618 9.85411 29.3343 9.51235 29.3343 9.16675C29.3343 8.82114 29.2618 8.47939 29.1214 8.16358C28.981 7.84778 28.7759 7.56496 28.5193 7.33341C28.2628 7.10187 28.0576 6.81905 27.9173 6.50325C27.7769 6.18744 27.7043 5.84569 27.7043 5.50008C27.7043 5.15448 27.7769 4.81272 27.9173 4.49692C28.0576 4.18111 28.2628 3.89829 28.5193 3.66675M22 11.0001C22.2566 10.7685 22.4617 10.4857 22.6021 10.1699C22.7425 9.85411 22.815 9.51235 22.815 9.16675C22.815 8.82114 22.7425 8.47939 22.6021 8.16358C22.4617 7.84778 22.2566 7.56496 22 7.33341C21.7434 7.10187 21.5383 6.81905 21.3979 6.50325C21.2575 6.18744 21.185 5.84569 21.185 5.50008C21.185 5.15448 21.2575 4.81272 21.3979 4.49692C21.5383 4.18111 21.7434 3.89829 22 3.66675M15.4807 11.0001C15.7372 10.7685 15.9424 10.4857 16.0827 10.1699C16.2231 9.85411 16.2957 9.51235 16.2957 9.16675C16.2957 8.82114 16.2231 8.47939 16.0827 8.16358C15.9424 7.84778 15.7372 7.56496 15.4807 7.33341C15.2241 7.10187 15.019 6.81905 14.8786 6.50325C14.7382 6.18744 14.6657 5.84569 14.6657 5.50008C14.6657 5.15448 14.7382 4.81272 14.8786 4.49692C15.019 4.18111 15.2241 3.89829 15.4807 3.66675M13.75 34.8334H30.25" stroke="white" stroke-width="2.5" stroke-linecap="round"/>
<path d="M22.0016 27.5001C25.093 27.5029 28.0821 26.392 30.4213 24.3709C32.7606 22.3498 34.2936 19.5537 34.7396 16.4946C34.8551 15.6971 34.9119 15.2992 34.6369 14.9821C34.3619 14.6649 33.9183 14.6667 33.0309 14.6667H10.9723C10.0849 14.6667 9.64125 14.6667 9.36625 14.9821C9.09125 15.2992 9.14808 15.6971 9.26358 16.4946C9.7092 19.5539 11.2421 22.3502 13.5814 24.3714C15.9208 26.3926 18.91 27.5033 22.0016 27.5001Z" stroke="white" stroke-width="2.5" stroke-linecap="round" stroke-linejoin="round"/>
<path d="M34.834 18.3335H36.6673M9.16732 18.3335H7.33398" stroke="white" stroke-width="2.5" stroke-linecap="round"/>
</svg>
