<svg width="30" height="30" viewBox="0 0 30 30" fill="none" xmlns="http://www.w3.org/2000/svg">
<path d="M23.75 6.25H16.25V2.5H13.75V6.25H6.25C4.1825 6.25 2.5 7.9325 2.5 10V22.5C2.5 23.8787 3.62125 25 5 25H25C26.3787 25 27.5 23.8787 27.5 22.5V10C27.5 7.9325 25.8175 6.25 23.75 6.25ZM6.25 8.75H23.75C24.0815 8.75 24.3995 8.8817 24.6339 9.11612C24.8683 9.35054 25 9.66848 25 10L25.0012 13.9C23.8812 14.185 23.165 14.8175 22.6062 15.315C21.9725 15.8775 21.5537 16.25 20.6213 16.25C19.69 16.25 19.2712 15.8775 18.6375 15.3162C17.8938 14.655 16.8763 13.75 14.9937 13.75C13.1125 13.75 12.095 14.655 11.3513 15.3162C10.7175 15.8787 10.3 16.25 9.36875 16.25C8.44 16.25 8.0225 15.8787 7.39125 15.3162C6.8325 14.8188 6.11875 14.185 5 13.9V10C5 9.66848 5.1317 9.35054 5.36612 9.11612C5.60054 8.8817 5.91848 8.75 6.25 8.75ZM5 22.5V16.6075C5.23875 16.7613 5.4675 16.95 5.72875 17.1838C6.4725 17.845 7.48875 18.75 9.36875 18.75C11.25 18.75 12.2675 17.845 13.0113 17.1838C13.645 16.6213 14.0625 16.25 14.9937 16.25C15.925 16.25 16.3438 16.6225 16.9775 17.1838C17.7212 17.845 18.7388 18.75 20.6213 18.75C22.5037 18.75 23.5225 17.845 24.2663 17.1838C24.53 16.9487 24.76 16.7587 25.0012 16.6038L25.0025 22.5H5Z" fill="#364025"/>
</svg>
