<svg width="44" height="44" viewBox="0 0 44 44" fill="none" xmlns="http://www.w3.org/2000/svg">
<path d="M38.0813 18.6193L35.5733 11.0934C35.2095 9.99797 34.5097 9.04504 33.5734 8.37002C32.6371 7.695 31.5118 7.33223 30.3575 7.33325H13.6412C12.4869 7.33223 11.3616 7.695 10.4253 8.37002C9.48897 9.04504 8.78917 9.99797 8.42535 11.0934L5.91735 18.6193C5.25114 18.8988 4.68219 19.3686 4.28173 19.97C3.88127 20.5713 3.6671 21.2774 3.66602 21.9999V31.1666C3.66602 32.5471 4.44152 33.7369 5.57085 34.3621C5.54702 34.4831 5.49935 34.5931 5.49935 34.7196V38.4999C5.49935 38.9862 5.6925 39.4525 6.03632 39.7963C6.38014 40.1401 6.84645 40.3333 7.33268 40.3333H9.16602C9.65225 40.3333 10.1186 40.1401 10.4624 39.7963C10.8062 39.4525 10.9993 38.9862 10.9993 38.4999V34.8333H32.9993V38.4999C32.9993 38.9862 33.1925 39.4525 33.5363 39.7963C33.8801 40.1401 34.3465 40.3333 34.8327 40.3333H36.666C37.1522 40.3333 37.6186 40.1401 37.9624 39.7963C38.3062 39.4525 38.4993 38.9862 38.4993 38.4999V34.7196C38.4993 34.5931 38.4517 34.4813 38.4278 34.3621C39.0024 34.0488 39.4823 33.587 39.8174 33.0249C40.1525 32.4628 40.3304 31.821 40.3327 31.1666V21.9999C40.3327 20.4801 39.4013 19.1748 38.0813 18.6193ZM7.33268 31.1666V21.9999H36.666L36.6697 31.1666H7.33268ZM13.6412 10.9999H30.3557C31.1458 10.9999 31.8462 11.5023 32.0955 12.2539L34.1232 18.3333H9.87552L11.9013 12.2539C12.023 11.8887 12.2565 11.5711 12.5688 11.346C12.881 11.1209 13.2562 10.9998 13.6412 10.9999Z" fill="white"/>
<path d="M11.916 29.3333C13.4348 29.3333 14.666 28.102 14.666 26.5833C14.666 25.0645 13.4348 23.8333 11.916 23.8333C10.3972 23.8333 9.16602 25.0645 9.16602 26.5833C9.16602 28.102 10.3972 29.3333 11.916 29.3333Z" fill="white"/>
<path d="M32.0827 29.3333C33.6015 29.3333 34.8327 28.102 34.8327 26.5833C34.8327 25.0645 33.6015 23.8333 32.0827 23.8333C30.5639 23.8333 29.3327 25.0645 29.3327 26.5833C29.3327 28.102 30.5639 29.3333 32.0827 29.3333Z" fill="white"/>
</svg>
