<svg width="44" height="44" viewBox="0 0 44 44" fill="none" xmlns="http://www.w3.org/2000/svg">
<path d="M23.2971 4.2038C23.127 4.03339 22.9249 3.89821 22.7025 3.80597C22.4801 3.71374 22.2417 3.66626 22.0009 3.66626C21.7601 3.66626 21.5217 3.71374 21.2993 3.80597C21.0769 3.89821 20.8749 4.03339 20.7047 4.2038L4.20474 20.7038C3.94843 20.9602 3.77388 21.2868 3.70318 21.6424C3.63247 21.998 3.66877 22.3665 3.8075 22.7015C3.94623 23.0364 4.18115 23.3227 4.48257 23.5242C4.78399 23.7257 5.13837 23.8332 5.50091 23.8333H7.33424V36.6666C7.33424 38.6888 8.97874 40.3333 11.0009 40.3333H33.0009C35.0231 40.3333 36.6676 38.6888 36.6676 36.6666V23.8333H38.5009C38.8638 23.8341 39.2188 23.7271 39.5208 23.5257C39.8228 23.3244 40.0582 23.0379 40.1971 22.7026C40.3359 22.3673 40.3721 21.9983 40.3008 21.6424C40.2296 21.2865 40.0543 20.9598 39.7971 20.7038L23.2971 4.2038ZM33.0027 36.6666H11.0009V19.0923L22.0009 8.0923L33.0009 19.0923L33.0027 36.6666Z" fill="white"/>
<path d="M23.8343 18.3333H20.1676V23.8333H14.6676V27.4999H20.1676V32.9999H23.8343V27.4999H29.3343V23.8333H23.8343V18.3333Z" fill="white"/>
</svg>
