<svg width="30" height="30" viewBox="0 0 30 30" fill="none" xmlns="http://www.w3.org/2000/svg">
<path d="M15 10V16.25H21.25V13.75H17.5V10H15Z" fill="#364025"/>
<path d="M26.615 10.6213C26.0511 9.28384 25.2326 8.0688 24.205 7.04378C22.6494 5.48824 20.6721 4.42266 18.5175 3.97878C17.022 3.67439 15.4805 3.67439 13.985 3.97878C11.8283 4.41983 9.84934 5.48628 8.295 7.04503C7.26986 8.07114 6.45166 9.28486 5.885 10.62C5.29889 12.0058 4.9979 13.4954 5 15L5.00125 15.0313H2.5L6.25 20L10 15.0313H7.50125L7.5 15C7.4964 13.2567 8.01683 11.5526 8.99375 10.1088C9.6239 9.17714 10.4262 8.37442 11.3575 7.74378C12.3049 7.10554 13.3676 6.65803 14.4862 6.42628C16.7594 5.95891 19.1251 6.41332 21.0634 7.68962C23.0016 8.96592 24.3537 10.9597 24.8225 13.2325C25.0583 14.3974 25.0583 15.5977 24.8225 16.7625C24.5938 17.8821 24.1461 18.9454 23.505 19.8913C23.1925 20.355 22.8338 20.7913 22.4375 21.1863C21.639 21.9838 20.6948 22.6208 19.6562 23.0625C19.1273 23.2861 18.5775 23.457 18.015 23.5725C16.8505 23.8082 15.6507 23.8082 14.4862 23.5725C13.3679 23.3432 12.3056 22.896 11.36 22.2563C10.8949 21.942 10.4609 21.5842 10.0637 21.1875L8.29625 22.955C9.34016 24.0004 10.58 24.8295 11.9449 25.3949C13.3097 25.9603 14.7727 26.2509 16.25 26.25C17.7538 26.2494 19.2424 25.949 20.6287 25.3663C22.6383 24.5161 24.3575 23.1004 25.5775 21.2913C26.8331 19.4337 27.5028 17.2422 27.5 15C27.5031 13.4957 27.2021 12.0063 26.615 10.6213Z" fill="#364025"/>
</svg>
