<svg width="44" height="44" viewBox="0 0 44 44" fill="none" xmlns="http://www.w3.org/2000/svg">
<path d="M12.834 27.5V36.6667C12.834 42.1667 20.1673 42.1667 20.1673 36.6667V27.5M20.1673 33.9167H12.834" stroke="white" stroke-width="3" stroke-linecap="round" stroke-linejoin="round"/>
<path d="M12.834 5.50008C12.834 5.01385 13.0271 4.54754 13.371 4.20372C13.7148 3.8599 14.1811 3.66675 14.6673 3.66675H29.9161C30.2085 3.66675 30.4954 3.7355 30.7301 3.90966C31.6642 4.60633 34.0988 6.95025 34.834 12.8334C35.5426 18.5002 33.5791 24.1671 32.6505 26.4505C32.3865 27.1013 31.7476 27.5001 31.0463 27.5001H12.834V5.50008Z" stroke="white" stroke-width="3"/>
<path d="M20.1673 11.0002C21.1798 11.0002 22.0007 10.1794 22.0007 9.16683C22.0007 8.15431 21.1798 7.3335 20.1673 7.3335C19.1548 7.3335 18.334 8.15431 18.334 9.16683C18.334 10.1794 19.1548 11.0002 20.1673 11.0002Z" fill="white"/>
</svg>
