<svg width="30" height="30" viewBox="0 0 30 30" fill="none" xmlns="http://www.w3.org/2000/svg">
<path d="M15 12.5C11.0412 12.5 7.69625 15.9569 6.61625 20.3969C6.14125 22.3494 6.8575 24.4219 8.61562 25.3956C10.0094 26.1675 12.0825 26.875 15 26.875C17.9175 26.875 19.9912 26.1675 21.385 25.3956C23.1431 24.4219 23.8588 22.3494 23.3838 20.3969C22.3038 15.9562 18.9588 12.5 15 12.5ZM1.875 11.5275C1.875 13.2538 2.99375 15 4.375 15C5.75625 15 6.875 13.2538 6.875 11.5275C6.875 9.80125 5.75625 8.75 4.375 8.75C2.99375 8.75 1.875 9.80188 1.875 11.5275ZM28.125 11.5275C28.125 13.2538 27.0063 15 25.625 15C24.2437 15 23.125 13.2538 23.125 11.5275C23.125 9.80125 24.2437 8.75 25.625 8.75C27.0063 8.75 28.125 9.80188 28.125 11.5275ZM8.4375 5.9025C8.4375 7.62875 9.55625 9.375 10.9375 9.375C12.3188 9.375 13.4375 7.62875 13.4375 5.9025C13.4375 4.17625 12.3188 3.125 10.9375 3.125C9.55625 3.125 8.4375 4.17688 8.4375 5.9025ZM21.5625 5.9025C21.5625 7.62875 20.4438 9.375 19.0625 9.375C17.6812 9.375 16.5625 7.62875 16.5625 5.9025C16.5625 4.17625 17.6812 3.125 19.0625 3.125C20.4438 3.125 21.5625 4.17688 21.5625 5.9025Z" stroke="#364025" stroke-width="2" stroke-linecap="round" stroke-linejoin="round"/>
</svg>
