<svg width="30" height="30" viewBox="0 0 30 30" fill="none" xmlns="http://www.w3.org/2000/svg">
<path d="M10 16.25V21.25M20 6.25V6.875C20 7.53804 20.2634 8.17393 20.7322 8.64277C21.2011 9.11161 21.837 9.375 22.5 9.375C23.163 9.375 23.7989 9.63839 24.2678 10.1072C24.7366 10.5761 25 11.212 25 11.875V12.5M3.75 3.75L26.25 26.25M21.25 16.25H25C25.3315 16.25 25.6495 16.3817 25.8839 16.6161C26.1183 16.8505 26.25 17.1685 26.25 17.5V20C26.25 20.35 26.1063 20.6663 25.875 20.8925M21.25 21.25H5C4.66848 21.25 4.35054 21.1183 4.11612 20.8839C3.8817 20.6495 3.75 20.3315 3.75 20V17.5C3.75 17.1685 3.8817 16.8505 4.11612 16.6161C4.35054 16.3817 4.66848 16.25 5 16.25H16.25" stroke="#364025" stroke-width="2" stroke-linecap="round" stroke-linejoin="round"/>
</svg>
