<svg width="44" height="44" viewBox="0 0 44 44" fill="none" xmlns="http://www.w3.org/2000/svg">
<path d="M22.0006 10.9999C28.4851 10.9999 34.5351 13.4804 39.0378 17.9831L41.6301 15.3908C36.4363 10.1951 29.4641 7.33325 22.0006 7.33325C14.5371 7.33509 7.56493 10.1951 2.37109 15.3908L4.96343 17.9831C9.46609 13.4804 15.5161 10.9999 22.0006 10.9999ZM32.3974 26.2294C26.7618 20.5938 17.2394 20.5938 11.6038 26.2294L14.1961 28.8218C18.4256 24.5923 25.5756 24.5923 29.8051 28.8218L32.3974 26.2294Z" fill="white"/>
<path d="M37.4684 20.7038C29.0864 12.3182 14.9166 12.3182 6.53459 20.7038L9.12692 23.2962C16.1064 16.3167 27.8966 16.3167 34.8761 23.2962L37.4684 20.7038Z" fill="white"/>
<path d="M22.0005 36.6666C24.0256 36.6666 25.6672 35.025 25.6672 32.9999C25.6672 30.9749 24.0256 29.3333 22.0005 29.3333C19.9755 29.3333 18.3339 30.9749 18.3339 32.9999C18.3339 35.025 19.9755 36.6666 22.0005 36.6666Z" fill="white"/>
</svg>
